# xmcd
#
# Track frame offsets: 
#        150
#        15987
#        28102
#        42682
#        59487
#        78622
#        91727
#        109650
#        125792
#        140985
#        154510
#        174297
#
# Disc length: 2543 seconds
#
# Revision: 1
# Processed by: cddbd v1.5.2PL0 Copyright (c) Steve Scherf et al.
# Submitted via: ExactAudioCopy v1.0b3
#
DISCID=9f09ed0c
DTITLE=The Judds - Number One Hits
DYEAR=1994
DGENRE=Country
TTITLE0=Why Not ME
TTITLE1=Rockin' With The Rythmn Of The Rain
TTITLE2=Mama He's Crazy
TTITLE3=Turn It Loose
TTITLE4=Grandpa (Tell Me 'Bout The Goog Old Days)
TTITLE5=Girls Night Out
TTITLE6=Love Is Alive
TTITLE7=Change Of Heart
TTITLE8=Have Mercy
TTITLE9=Let Me Tell You About Love
TTITLE10=Young Love (Strong Love)
TTITLE11=I Know Where I'm Going
EXTD=
EXTT0=
EXTT1=
EXTT2=
EXTT3=
EXTT4=
EXTT5=
EXTT6=
EXTT7=
EXTT8=
EXTT9=
EXTT10=
EXTT11=
PLAYORDER=
